<svg xmlns="http://www.w3.org/2000/svg" width="96" height="96" viewBox="0 0 96 96">
  <g id="Group_9051" data-name="Group 9051" transform="translate(21988 21780)">
    <rect id="Rectangle_3335" data-name="Rectangle 3335" width="96" height="96" transform="translate(-21988 -21780)" fill="none"/>
    <g id="Group_9020" data-name="Group 9020" transform="translate(-22283 -22529)">
      <g id="Group_5299" data-name="Group 5299" transform="translate(323 773)">
        <g id="Group_5298" data-name="Group 5298" transform="translate(1.082 1.088)">
          <path id="Path_8671" data-name="Path 8671" d="M11.573,24c-5.226,5.273-7.79,10.355-6,12.905,1.574,2.248,6.148,2,11.825-.216a50.852,50.852,0,0,1-1.26-8.6A54.212,54.212,0,0,1,11.573,24Z" transform="translate(-5.003 -1.5)" fill="#fce1ec"/>
          <path id="Path_8672" data-name="Path 8672" d="M36.427,24c5.226-5.273,7.79-10.355,6-12.905-1.574-2.248-6.148-2-11.825.216a50.852,50.852,0,0,1,1.26,8.6A54.038,54.038,0,0,1,36.427,24Z" transform="translate(-5.003 -1.5)" fill="#fce1ec"/>
          <path id="Path_8673" data-name="Path 8673" d="M17.394,11.311C11.717,9.1,7.143,8.847,5.569,11.1c-1.786,2.55.778,7.632,6,12.905a54.037,54.037,0,0,1,4.561-4.089A50.851,50.851,0,0,1,17.394,11.311Z" transform="translate(-5.003 -1.5)" fill="#fce1ec"/>
          <path id="Path_8674" data-name="Path 8674" d="M36.427,24a54.212,54.212,0,0,1-4.561,4.089,50.852,50.852,0,0,1-1.26,8.6c5.677,2.215,10.251,2.464,11.825.216C44.217,34.355,41.653,29.273,36.427,24Z" transform="translate(-5.003 -1.5)" fill="#fce1ec"/>
          <path id="Path_8675" data-name="Path 8675" d="M30.606,11.311C29.165,5.388,26.744,1.5,24,1.5s-5.165,3.888-6.606,9.811A49.378,49.378,0,0,1,24,14.532,49.378,49.378,0,0,1,30.606,11.311Z" transform="translate(-5.003 -1.5)" fill="#fce1ec"/>
          <path id="Path_8676" data-name="Path 8676" d="M17.394,36.689C18.835,42.612,21.256,46.5,24,46.5s5.165-3.888,6.606-9.811A49.378,49.378,0,0,1,24,33.468,49.378,49.378,0,0,1,17.394,36.689Z" transform="translate(-5.003 -1.5)" fill="#fce1ec"/>
        </g>
        <path id="Path_8677" data-name="Path 8677" d="M37.943,24a36.527,36.527,0,0,0,3.221-3.861c2.9-4.078,3.668-7.513,2.158-9.668s-5-2.612-9.823-1.279c-.695.192-1.414.428-2.142.685C29.845,4.364,27.365.412,24,.412s-5.845,3.951-7.357,9.465c-.728-.257-1.447-.493-2.142-.685-4.825-1.333-8.314-.878-9.823,1.279s-.743,5.59,2.158,9.668A36.526,36.526,0,0,0,10.057,24a36.526,36.526,0,0,0-3.221,3.861c-2.9,4.078-3.668,7.512-2.158,9.668.942,1.345,2.654,2.028,4.98,2.028a18.511,18.511,0,0,0,4.843-.749c.695-.192,1.414-.429,2.142-.685,1.512,5.513,3.992,9.465,7.357,9.465s5.845-3.952,7.357-9.466c.728.257,1.447.494,2.142.686a18.5,18.5,0,0,0,4.843.749c2.326,0,4.039-.683,4.98-2.028,1.51-2.156.743-5.59-2.158-9.668A36.527,36.527,0,0,0,37.943,24ZM34.078,11.29a16.6,16.6,0,0,1,4.3-.679c1.541,0,2.65.373,3.165,1.108.914,1.305.111,3.982-2.149,7.159a34.423,34.423,0,0,1-2.979,3.576c-1.086-1.047-2.253-2.087-3.5-3.1A54.1,54.1,0,0,0,31.875,12C32.626,11.734,33.366,11.486,34.078,11.29ZM27.965,29.661c-1.316.922-2.643,1.771-3.965,2.553-1.321-.782-2.649-1.631-3.964-2.553-.984-.689-1.926-1.4-2.84-2.12-.065-1.146-.108-2.319-.108-3.541s.043-2.4.108-3.541c.914-.72,1.856-1.431,2.84-2.12,1.315-.922,2.643-1.771,3.964-2.553,1.322.782,2.649,1.631,3.965,2.553.983.688,1.925,1.4,2.839,2.12.064,1.145.108,2.319.108,3.541s-.044,2.4-.108,3.541C29.89,28.262,28.948,28.973,27.965,29.661Zm2.608.8c-.182,1.7-.437,3.276-.742,4.734-1.193-.509-2.414-1.1-3.653-1.756,1.014-.628,2.029-1.285,3.035-1.99C29.676,31.12,30.124,30.788,30.573,30.456Zm-8.75,2.978q-1.86.99-3.654,1.756c-.3-1.458-.56-3.036-.742-4.734.449.332.9.664,1.361.988C19.794,32.149,20.808,32.806,21.823,33.434Zm-6.886-7.757C14.3,25.122,13.7,24.562,13.118,24c.583-.562,1.184-1.122,1.819-1.677-.015.56-.025,1.119-.025,1.677S14.922,25.117,14.937,25.677Zm2.49-8.133c.182-1.7.437-3.276.742-4.734,1.193.509,2.415,1.1,3.654,1.756-1.015.628-2.029,1.285-3.035,1.99C18.325,16.88,17.876,17.212,17.427,17.544Zm8.75-2.978c1.24-.66,2.461-1.247,3.654-1.756.305,1.458.56,3.035.742,4.734-.449-.332-.9-.664-1.36-.988C28.207,15.851,27.192,15.194,26.177,14.566Zm6.886,7.756c.635.556,1.236,1.116,1.82,1.678-.584.562-1.185,1.122-1.82,1.677.015-.559.025-1.119.025-1.677S33.078,22.882,33.063,22.322ZM24,2.588c1.916,0,3.955,3.036,5.319,8.077A50.713,50.713,0,0,0,24,13.277a50.713,50.713,0,0,0-5.319-2.612C20.045,5.624,22.084,2.588,24,2.588ZM6.46,11.719c.515-.736,1.624-1.108,3.165-1.108a16.6,16.6,0,0,1,4.3.679c.712.2,1.451.444,2.2.713a54.285,54.285,0,0,0-1.036,7.349c-1.247,1.016-2.414,2.055-3.5,3.1a34.312,34.312,0,0,1-2.98-3.576C6.35,15.7,5.546,13.024,6.46,11.719ZM13.923,36.71c-3.759,1.039-6.548.878-7.463-.429S6.35,32.3,8.609,29.122a34.312,34.312,0,0,1,2.98-3.576c1.085,1.047,2.252,2.086,3.5,3.1A54.248,54.248,0,0,0,16.124,36C15.374,36.266,14.635,36.514,13.923,36.71ZM24,45.412c-1.916,0-3.955-3.037-5.319-8.077A50.713,50.713,0,0,0,24,34.723a50.5,50.5,0,0,0,5.319,2.611C27.955,42.375,25.916,45.412,24,45.412Zm17.54-9.131c-.914,1.307-3.7,1.468-7.462.429-.712-.2-1.452-.444-2.2-.714a54.1,54.1,0,0,0,1.037-7.347c1.247-1.016,2.414-2.056,3.5-3.1a34.423,34.423,0,0,1,2.979,3.576C41.651,32.3,42.454,34.976,41.54,36.281Z" transform="translate(-3.922 -0.412)" fill="#606060"/>
        <circle id="Ellipse_330" data-name="Ellipse 330" cx="2.44" cy="2.44" r="2.44" transform="translate(17.639 21.148)" fill="#fce1ec"/>
        <path id="Path_8678" data-name="Path 8678" d="M24,27.9A3.9,3.9,0,1,1,27.9,24,3.9,3.9,0,0,1,24,27.9Zm0-6A2.1,2.1,0,1,0,26.1,24,2.1,2.1,0,0,0,24,21.9Z" transform="translate(-3.922 -0.412)" fill="#606060"/>
      </g>
    </g>
  </g>
</svg>
