<svg xmlns="http://www.w3.org/2000/svg" width="96" height="96" viewBox="0 0 96 96">
  <g id="Group_9040" data-name="Group 9040" transform="translate(21593 21661)">
    <rect id="Rectangle_3346" data-name="Rectangle 3346" width="96" height="96" transform="translate(-21593 -21661)" fill="none"/>
    <g id="Group_9031" data-name="Group 9031" transform="translate(-22609 -22213)">
      <g id="Group_4535" data-name="Group 4535" transform="translate(1041 576.001)">
        <g id="Group_4532" data-name="Group 4532" transform="translate(0)">
          <path id="Path_8557" data-name="Path 8557" d="M7.62,47.49H43.97a1.07,1.07,0,0,0,0-2.14h-.94V34.38h.94a1.07,1.07,0,0,0,0-2.14H33.75l.89-.63a14.966,14.966,0,0,0,6.27-12.14V16.01A10.251,10.251,0,0,0,35.4,6.86a9.733,9.733,0,0,0-9.99.22l-.62.41.08-.74a9.951,9.951,0,0,1,1.99-5.03,1.069,1.069,0,0,0-.2-1.5,1.078,1.078,0,0,0-1.5.2,12.1,12.1,0,0,0-2.45,6.46l-.04.6-.5-.34a9.73,9.73,0,0,0-10.04-.31,10.242,10.242,0,0,0-5.54,9.18v3.46a14.939,14.939,0,0,0,6.27,12.14l.89.63H7.62a7.625,7.625,0,0,0,0,15.25Zm1.1-28.02V16.01A8.16,8.16,0,0,1,14.59,8.1a7.142,7.142,0,0,1,8.28,2.71,1.072,1.072,0,0,0,1.76,0,7.123,7.123,0,0,1,8.26-2.7,8.3,8.3,0,0,1,5.89,7.91v3.46A12.791,12.791,0,0,1,26,32.26H21.5A12.812,12.812,0,0,1,8.72,19.47ZM7.62,34.38H40.9V38.8H11.77a1.07,1.07,0,0,0,0,2.14H40.9v4.42H7.62a5.49,5.49,0,0,1,0-10.98Z" transform="translate(0 -0.004)" fill="#606060"/>
          <path id="Path_8558" data-name="Path 8558" d="M7.62,34.38H40.9V38.8H11.77a1.07,1.07,0,1,0,0,2.14H40.9v4.42H7.62a5.49,5.49,0,1,1,0-10.98Z" transform="translate(0 -0.004)" fill="#fce1ec"/>
          <path id="Path_8559" data-name="Path 8559" d="M8.72,19.47V16.01A8.16,8.16,0,0,1,14.59,8.1a7.142,7.142,0,0,1,8.28,2.71,1.072,1.072,0,0,0,1.76,0,7.123,7.123,0,0,1,8.26-2.7,8.3,8.3,0,0,1,5.89,7.91v3.46A12.791,12.791,0,0,1,26,32.26H21.5A12.812,12.812,0,0,1,8.72,19.47Z" transform="translate(0 -0.004)" fill="none"/>
        </g>
      </g>
    </g>
  </g>
</svg>
