<svg xmlns="http://www.w3.org/2000/svg" width="96" height="96" viewBox="0 0 96 96">
  <g id="Group_9046" data-name="Group 9046" transform="translate(21196 21780)">
    <rect id="Rectangle_3340" data-name="Rectangle 3340" width="96" height="96" transform="translate(-21196 -21780)" fill="none"/>
    <g id="Group_9025" data-name="Group 9025" transform="translate(-7764 -5539)">
      <g id="Group_4711" data-name="Group 4711" transform="translate(-13411 -16215.999)">
        <path id="Path_8519" data-name="Path 8519" d="M33.21,0H20.41a4.306,4.306,0,0,0-4.3,4.3V6.4H1.1A1.1,1.1,0,0,0,0,7.5V42.7A4.306,4.306,0,0,0,4.3,47H49.31a4.306,4.306,0,0,0,4.3-4.3V7.53A1.045,1.045,0,0,0,52.52,6.4H37.51V4.3A4.306,4.306,0,0,0,33.21,0ZM18.31,4.3a2.1,2.1,0,0,1,2.1-2.1h12.8a2.1,2.1,0,0,1,2.1,2.1V6.4h-17V4.3Zm33.1,38.4a2.1,2.1,0,0,1-2.1,2.1H4.3a2.1,2.1,0,0,1-2.1-2.1V14.28L5.73,24.86A4.3,4.3,0,0,0,9.81,27.8h9.5v2.1a1.1,1.1,0,0,0,1.1,1.1h12.8a1.1,1.1,0,0,0,1.1-1.1V27.8h9.5a4.3,4.3,0,0,0,4.08-2.94l3.53-10.58V42.7ZM21.51,28.8V24.6h10.6v4.2ZM50.99,8.6,45.8,24.16a2.105,2.105,0,0,1-1.99,1.44h-9.5V23.5a1.1,1.1,0,0,0-1.1-1.1H20.41a1.1,1.1,0,0,0-1.1,1.1v2.1H9.81a2.087,2.087,0,0,1-1.99-1.44L2.63,8.6Z" fill="#606060"/>
        <path id="Path_8520" data-name="Path 8520" d="M50.99,8.6,45.8,24.16a2.105,2.105,0,0,1-1.99,1.44h-9.5V23.5a1.1,1.1,0,0,0-1.1-1.1H20.41a1.1,1.1,0,0,0-1.1,1.1v2.1H9.81a2.086,2.086,0,0,1-1.99-1.44L2.63,8.6Z" transform="translate(0)" fill="#fce1ec"/>
        <rect id="Rectangle_2410" data-name="Rectangle 2410" width="10.6" height="4.2" transform="translate(21.51 24.6)" fill="none"/>
      </g>
    </g>
  </g>
</svg>
