<svg xmlns="http://www.w3.org/2000/svg" width="96" height="96" viewBox="0 0 96 96">
  <g id="Group_9039" data-name="Group 9039" transform="translate(21462 21661)">
    <rect id="Rectangle_3347" data-name="Rectangle 3347" width="96" height="96" transform="translate(-21462 -21661)" fill="none"/>
    <g id="Group_9032" data-name="Group 9032" transform="translate(-22598 -22213)">
      <g id="Group_4538" data-name="Group 4538" transform="translate(1156 576)">
        <path id="Path_8560" data-name="Path 8560" d="M49.3,21.53v5.39a1.071,1.071,0,0,1-1.07,1.07H41.92V46.15H53.61V21.53ZM45.54,35.22a1.7,1.7,0,0,1,1.7-1.69h.91a1.7,1.7,0,0,1,1.7,1.69v4.47H45.54Z" transform="translate(0 0)" fill="#fce1ec"/>
        <path id="Path_8562" data-name="Path 8562" d="M7.54,27.99a1.071,1.071,0,0,1-1.07-1.07V21.53H2.15V46.15h11.7V27.99Zm-1.7,7.23a1.705,1.705,0,0,1,1.71-1.69h.9a1.705,1.705,0,0,1,1.71,1.69v4.47H5.84Z" transform="translate(0 0)" fill="#fce1ec"/>
        <path id="Path_8563" data-name="Path 8563" d="M54.68,19.38H48.22a1.071,1.071,0,0,0-1.07,1.07v5.39H41.84V13.22h1.7a1.071,1.071,0,0,0,1.07-1.07V1.07A1.071,1.071,0,0,0,43.54,0H38a1.071,1.071,0,0,0-1.07,1.07V4.61H35.39V1.07A1.088,1.088,0,0,0,34.3,0H29.68a1.071,1.071,0,0,0-1.07,1.07V4.61H27.06V1.07A1.056,1.056,0,0,0,26,0H21.38a1.071,1.071,0,0,0-1.07,1.07V4.61H18.76V1.07A1.071,1.071,0,0,0,17.69,0H12.15a1.071,1.071,0,0,0-1.07,1.07V12.15a1.071,1.071,0,0,0,1.07,1.07h1.7V25.84H8.61V20.45a1.071,1.071,0,0,0-1.07-1.07H1.07A1.08,1.08,0,0,0,0,20.46V47.23A1.071,1.071,0,0,0,1.07,48.3H54.68a1.071,1.071,0,0,0,1.07-1.07V20.46A1.067,1.067,0,0,0,54.68,19.38Zm-1.07,2.15V46.15H41.91V27.99h6.31a1.071,1.071,0,0,0,1.07-1.07V21.53ZM28.77,28.62H26.92a6.624,6.624,0,0,0-6.61,6.61V46.16H16V13.22H39.7V46.15H35.39V35.23A6.632,6.632,0,0,0,28.77,28.62Zm-6.31,6.61a4.464,4.464,0,0,1,4.46-4.46h1.85a4.464,4.464,0,0,1,4.46,4.46V46.16H22.46ZM17.69,6.76h3.69a1.071,1.071,0,0,0,1.07-1.07V2.15h2.47V5.69a1.071,1.071,0,0,0,1.07,1.07h3.69a1.071,1.071,0,0,0,1.07-1.07V2.15h2.47V5.69a1.071,1.071,0,0,0,1.07,1.07H38a1.071,1.071,0,0,0,1.07-1.07V2.15h3.39v8.93H13.22V2.15h3.39V5.69A1.086,1.086,0,0,0,17.69,6.76ZM7.54,27.99h6.31V46.15H2.15V21.53H6.47v5.39A1.059,1.059,0,0,0,7.54,27.99Z" fill="#606060"/>
        <path id="Path_8564" data-name="Path 8564" d="M8.45,31.39h-.9A3.841,3.841,0,0,0,3.7,35.22v5.55a1.071,1.071,0,0,0,1.07,1.07h6.46a1.08,1.08,0,0,0,1.08-1.07V35.22A3.85,3.85,0,0,0,8.45,31.39Zm1.71,8.3H5.84V35.22a1.705,1.705,0,0,1,1.71-1.69h.9a1.705,1.705,0,0,1,1.71,1.69Z" transform="translate(0)" fill="#606060"/>
        <path id="Path_8565" data-name="Path 8565" d="M48.15,31.39h-.91a3.847,3.847,0,0,0-3.85,3.83v5.55a1.071,1.071,0,0,0,1.07,1.07h6.46A1.073,1.073,0,0,0,52,40.77V35.22A3.847,3.847,0,0,0,48.15,31.39Zm1.7,8.3H45.54V35.22a1.7,1.7,0,0,1,1.7-1.69h.91a1.7,1.7,0,0,1,1.7,1.69Z" transform="translate(0)" fill="#606060"/>
        <path id="Path_8566" data-name="Path 8566" d="M34.3,14.77h-.91a3.85,3.85,0,0,0-3.85,3.84v5.54a1.08,1.08,0,0,0,1.08,1.07h6.46a1.071,1.071,0,0,0,1.07-1.07V18.61A3.85,3.85,0,0,0,34.3,14.77ZM36,23.08H31.69V18.61a1.7,1.7,0,0,1,1.7-1.69h.91A1.7,1.7,0,0,1,36,18.61Z" transform="translate(0 0)" fill="#606060"/>
        <path id="Path_8567" data-name="Path 8567" d="M22.3,14.77h-.91a3.85,3.85,0,0,0-3.85,3.84v5.54a1.08,1.08,0,0,0,1.08,1.07h6.46a1.071,1.071,0,0,0,1.07-1.07V18.61A3.85,3.85,0,0,0,22.3,14.77ZM24,23.08H19.69V18.61a1.7,1.7,0,0,1,1.7-1.69h.91A1.7,1.7,0,0,1,24,18.61Z" transform="translate(0 0)" fill="#606060"/>
        <path id="Path_8568" data-name="Path 8568" d="M17.69,6.76h3.69a1.071,1.071,0,0,0,1.07-1.07V2.15h2.47V5.69a1.071,1.071,0,0,0,1.07,1.07h3.69a1.071,1.071,0,0,0,1.07-1.07V2.15h2.47V5.69a1.071,1.071,0,0,0,1.07,1.07H38a1.071,1.071,0,0,0,1.07-1.07V2.15h3.39v8.93H13.22V2.15h3.39V5.69A1.086,1.086,0,0,0,17.69,6.76Z" transform="translate(0)" fill="#fce1ec"/>
      </g>
    </g>
  </g>
</svg>
