<svg xmlns="http://www.w3.org/2000/svg" width="96" height="96" viewBox="0 0 96 96">
  <g id="Group_9050" data-name="Group 9050" transform="translate(21841 21780)">
    <rect id="Rectangle_3336" data-name="Rectangle 3336" width="96" height="96" transform="translate(-21841 -21780)" fill="none"/>
    <g id="Group_9021" data-name="Group 9021" transform="translate(-21897 -22332)">
      <g id="Group_4553" data-name="Group 4553" transform="translate(80 576)">
        <path id="Path_8581" data-name="Path 8581" d="M4.85,24.62a1.094,1.094,0,0,0-.11-1.09A13.452,13.452,0,0,1,3.97,8.9L4,8.85A13.365,13.365,0,0,1,8.6,4.12a1.339,1.339,0,0,1,.12-.06c.04-.02.07-.04.11-.06a.174.174,0,0,0,.07-.03,13.45,13.45,0,1,1,6.72,25.1A13.319,13.319,0,0,1,7.19,26.1a1.086,1.086,0,0,0-.68-.24,1.059,1.059,0,0,0-.31.05l-2.18.57Z" transform="translate(0)" fill="#fce1ec"/>
        <g id="Group_4550" data-name="Group 4550">
          <path id="Path_8582" data-name="Path 8582" d="M10.48,23.24a1.177,1.177,0,0,0,.52-.13,10.952,10.952,0,0,0,4.57-4.81,10.9,10.9,0,0,0,4.57,4.81,1.056,1.056,0,0,0,.52.13,1.087,1.087,0,0,0,.52-2.04,8.772,8.772,0,0,1-4.4-6.17h3.11a1.09,1.09,0,0,0,0-2.18H16.65V9.09a1.09,1.09,0,0,0-2.18,0v3.76H11.23a1.09,1.09,0,1,0,0,2.18h3.11a8.772,8.772,0,0,1-4.4,6.17,1.093,1.093,0,0,0-.43,1.48A1.134,1.134,0,0,0,10.48,23.24Z" transform="translate(0 0)" fill="#606060"/>
          <path id="Path_8583" data-name="Path 8583" d="M33.96,24.1a1.073,1.073,0,0,0-1-.65,1.1,1.1,0,0,0-1,.65L27.03,35.34a1.086,1.086,0,0,0,.56,1.43,1.147,1.147,0,0,0,.84.02,1.1,1.1,0,0,0,.6-.58l1.38-3.14h5.12l1.38,3.14a1.083,1.083,0,0,0,1,.65,1.118,1.118,0,0,0,.44-.09,1.086,1.086,0,0,0,.56-1.43Zm.61,6.8H31.36l1.61-3.66Z" transform="translate(0 0)" fill="#606060"/>
          <path id="Path_8584" data-name="Path 8584" d="M44.21,16.88H31.19c.03-.42.05-.84.05-1.25A15.644,15.644,0,0,0,15.62,0,15.481,15.481,0,0,0,9.69,1.17V1.16l-.21.09A14.553,14.553,0,0,0,7.46,2.27,15.634,15.634,0,0,0,1.89,8.12a.929.929,0,0,0-.04.13v.02h0a15.578,15.578,0,0,0,.77,16.01L1.08,27.65a1.1,1.1,0,0,0,.16,1.15,1.083,1.083,0,0,0,1.11.35l3.92-1.02a15.68,15.68,0,0,0,9.36,3.11,15.034,15.034,0,0,0,2-.13v8.04a4.1,4.1,0,0,0,4.09,4.09H34.93l5.89,4.82a1.083,1.083,0,0,0,.69.25,1.278,1.278,0,0,0,.47-.1,1.093,1.093,0,0,0,.62-.98V43.26h1.63a4.1,4.1,0,0,0,4.09-4.09V20.96A4.116,4.116,0,0,0,44.21,16.88Zm1.91,22.27a1.916,1.916,0,0,1-1.91,1.91H41.49a1.093,1.093,0,0,0-1.09,1.09v2.77l-4.38-3.58c-.3-.27-.56-.27-1.08-.27H21.71a1.916,1.916,0,0,1-1.91-1.91V30.68A15.777,15.777,0,0,0,30.86,19.06H44.21a1.916,1.916,0,0,1,1.91,1.91ZM4.85,24.62a1.094,1.094,0,0,0-.11-1.09A13.452,13.452,0,0,1,3.97,8.9L4,8.85A13.365,13.365,0,0,1,8.6,4.12a1.339,1.339,0,0,1,.12-.06c.04-.02.07-.04.11-.06a.174.174,0,0,0,.07-.03,13.45,13.45,0,1,1,6.72,25.1A13.319,13.319,0,0,1,7.19,26.1a1.086,1.086,0,0,0-.68-.24,1.059,1.059,0,0,0-.31.05l-2.18.57Z" fill="#606060"/>
        </g>
      </g>
    </g>
  </g>
</svg>
