<svg xmlns="http://www.w3.org/2000/svg" width="96" height="96" viewBox="0 0 96 96">
  <g id="Group_9049" data-name="Group 9049" transform="translate(21690 21780)">
    <rect id="Rectangle_3337" data-name="Rectangle 3337" width="96" height="96" transform="translate(-21690 -21780)" fill="none"/>
    <g id="Group_9022" data-name="Group 9022" transform="translate(-3584.058 -3830.046)">
      <g id="Group_5714" data-name="Group 5714" transform="translate(-18073.941 -17925.953)">
        <path id="Path_8767" data-name="Path 8767" d="M12.506,47.082h.2a3.337,3.337,0,0,0,3.506,2.543,3.337,3.337,0,0,0,3.506-2.543h0c2,0,3.506-1.937,3.506-4.48V35.7H9v6.9C9,45.265,10.5,47.082,12.506,47.082Z" transform="translate(0.017 -2.337)" fill="#fce1ec"/>
        <path id="Path_8768" data-name="Path 8768" d="M16.1,16.2" transform="translate(0.03 0.03)" fill="#1f4254" stroke="#fff" stroke-miterlimit="10" stroke-width="1"/>
        <g id="Group_5712" data-name="Group 5712" transform="translate(8.813 10.799)">
          <g id="Group_5711" data-name="Group 5711">
            <path id="Path_8769" data-name="Path 8769" d="M15.913,33.337a.947.947,0,0,1-1-1V25.122L9.2,18.109a1.968,1.968,0,0,1,.1-2.5l1.9-1.9a1.876,1.876,0,0,1,2.6,0l.6.6.6-.6a1.876,1.876,0,0,1,2.6,0l.6.6.6-.6a1.876,1.876,0,0,1,2.6,0l1.9,1.9a.992.992,0,0,1-1.4,1.4l-1.9-1.8-1.2,1.2a.968.968,0,0,1-1.4,0l-1.2-1.2-1.2,1.2a.968.968,0,0,1-1.4,0l-1.2-1.2-1.7,1.7,5.911,7.213a1.424,1.424,0,0,1,.2.6v7.514A.957.957,0,0,1,15.913,33.337Z" transform="translate(-8.797 -13.175)" fill="#606060"/>
          </g>
        </g>
        <g id="Group_5713" data-name="Group 5713">
          <path id="Path_8770" data-name="Path 8770" d="M16.13,2c7.514,0,14.126,6.212,14.126,13.224,0,4.909-2.2,7.013-4.609,9.317-2.1,1.9-4.408,4.108-4.408,8.015v8.917a1.553,1.553,0,0,1-1.6,1.7h-1.4l-.5,1.4c-.1.2-.3.7-1.6.7-1.4,0-1.6-.5-1.6-.7l-.5-1.4h-1.6a1.533,1.533,0,0,1-1.5-1.7V32.56c0-3.907-2.3-6.111-4.308-8.015C4.208,22.341,2,20.237,2,15.228,2,8.215,8.616,2,16.13,2m0-2C7.113,0,0,7.414,0,15.228,0,25.748,8.917,25.748,8.917,32.56v8.917a3.534,3.534,0,0,0,3.506,3.707h.2c.4,1.2,1.5,2.1,3.506,2.1s3.106-.9,3.506-2.1h0a3.534,3.534,0,0,0,3.506-3.707V32.56c0-6.813,9.017-6.813,9.017-17.332C32.36,7.414,25.247,0,16.13,0Z" fill="#606060"/>
        </g>
      </g>
    </g>
  </g>
</svg>
