<svg xmlns="http://www.w3.org/2000/svg" width="96" height="96" viewBox="0 0 96 96">
  <g id="Group_9038" data-name="Group 9038" transform="translate(21325 21661)">
    <rect id="Rectangle_3348" data-name="Rectangle 3348" width="96" height="96" transform="translate(-21325 -21661)" fill="none"/>
    <g id="Group_9033" data-name="Group 9033" transform="translate(-22701 -22213.002)">
      <g id="Group_4545" data-name="Group 4545" transform="translate(1400 576.001)">
        <g id="Group_4542" data-name="Group 4542" transform="translate(0)">
          <path id="Path_8573" data-name="Path 8573" d="M21.46,12.52c.64.54,1.31,1.1,2.02,1.71a1.1,1.1,0,0,0,1.39,0c.64-.56,1.25-1.07,1.84-1.57,3.35-2.83,5.76-4.86,5.76-7.73A4.778,4.778,0,0,0,27.75,0a4.254,4.254,0,0,0-3.29,1.52l-.28.32-.28-.32A4.254,4.254,0,0,0,20.61,0a4.788,4.788,0,0,0-4.73,4.94C15.88,7.85,18.22,9.81,21.46,12.52ZM20.61,2.13c1.79,0,2.47,2.07,2.54,2.31a1.058,1.058,0,0,0,2.05.01c.08-.25.75-2.32,2.55-2.32a2.684,2.684,0,0,1,2.6,2.81c0,1.88-1.99,3.56-5,6.11l-1.17.99L22.83,10.9c-3.17-2.65-4.82-4.12-4.82-5.96A2.678,2.678,0,0,1,20.61,2.13Z" transform="translate(0.003 0)" fill="#606060"/>
          <path id="Path_8574" data-name="Path 8574" d="M47.94,14.03a6.82,6.82,0,1,0-12.44.87l.27.51-.58.04a11.515,11.515,0,0,0-10.42,8.63l-.12.49-.31-.01a2.044,2.044,0,0,0-.35,0l-.31.01-.08-.3a11.491,11.491,0,0,0-10.47-8.82l-.58-.04.27-.51a6.725,6.725,0,0,0,.38-5.53A6.806,6.806,0,0,0,.41,14.03a6.837,6.837,0,0,0,3.86,3.99l.53.22-.41.4A11.566,11.566,0,0,0,2,31.97L9.55,47.75a1.062,1.062,0,0,0,.96.6H37.83a1.08,1.08,0,0,0,.96-.6l7.55-15.78a11.564,11.564,0,0,0-2.38-13.33l-.41-.4.53-.22A6.838,6.838,0,0,0,47.94,14.03ZM24.18,26.68a3.25,3.25,0,1,1-3.25,3.25A3.256,3.256,0,0,1,24.18,26.68ZM2.41,13.3a4.7,4.7,0,1,1,4.41,3.08A4.694,4.694,0,0,1,2.41,13.3Zm8.78,32.92L3.93,31.04a9.461,9.461,0,0,1-.22-7.66A9.356,9.356,0,0,1,9.16,18.1a9.455,9.455,0,0,1,12.35,6.47l.14.6-.23.14A5.4,5.4,0,0,0,18.88,29l-.1.6-3.84-2.83a3.939,3.939,0,0,0-6.26,3.7,3.882,3.882,0,0,0,1.54,2.6l7.94,5.98,1.79,7.17Zm15.03,0H22.13l-2.01-8.05a1.121,1.121,0,0,0-.39-.59l-8.24-6.21a1.806,1.806,0,0,1-.37-2.53,1.816,1.816,0,0,1,2.54-.36l6.12,4.54a5.372,5.372,0,0,0,8.8,0l.08-.09,6.03-4.46a1.816,1.816,0,0,1,2.54.36,1.786,1.786,0,0,1,.34,1.34,1.811,1.811,0,0,1-.71,1.2l-8.24,6.2a1.121,1.121,0,0,0-.39.59ZM44.65,23.39a9.461,9.461,0,0,1-.22,7.66L37.17,46.22H28.42l1.79-7.17,7.94-5.98a3.936,3.936,0,0,0-4.72-6.3l-3.85,2.84-.1-.6a5.376,5.376,0,0,0-2.54-3.69l-.23-.14.14-.59a9.385,9.385,0,0,1,4.71-5.94,9.506,9.506,0,0,1,7.65-.54A9.367,9.367,0,0,1,44.65,23.39Zm-1.14-7.44a4.72,4.72,0,0,1-1.98.44,4.528,4.528,0,0,1-1.61-.29,4.687,4.687,0,1,1,6-2.8A4.559,4.559,0,0,1,43.51,15.95Z" transform="translate(0.003 0)" fill="#606060"/>
        </g>
        <path id="Path_8575" data-name="Path 8575" d="M44.65,23.39a9.46,9.46,0,0,1-.22,7.66L37.17,46.22H28.42l1.79-7.17,7.94-5.98a3.936,3.936,0,1,0-4.72-6.3l-3.85,2.84-.1-.6a5.376,5.376,0,0,0-2.54-3.69l-.23-.14.14-.59a9.385,9.385,0,0,1,4.71-5.94,9.506,9.506,0,0,1,7.65-.54A9.367,9.367,0,0,1,44.65,23.39Z" transform="translate(0.003)" fill="#fce1ec"/>
        <path id="Path_8576" data-name="Path 8576" d="M11.19,46.22,3.93,31.04a9.46,9.46,0,0,1-.22-7.66A9.356,9.356,0,0,1,9.16,18.1a9.455,9.455,0,0,1,12.35,6.47l.14.6-.23.14A5.4,5.4,0,0,0,18.88,29l-.1.6-3.84-2.83a3.939,3.939,0,0,0-6.26,3.7,3.882,3.882,0,0,0,1.54,2.6l7.94,5.98,1.79,7.17Z" transform="translate(0.003 0)" fill="#fce1ec"/>
      </g>
    </g>
  </g>
</svg>
